<?xml version="1.0" standalone="no"?>
<!DOCTYPE svg PUBLIC "-//W3C//DTD SVG 20010904//EN"
 "http://www.w3.org/TR/2001/REC-SVG-20010904/DTD/svg10.dtd">
<svg version="1.0" xmlns="http://www.w3.org/2000/svg"
 width="86.000000pt" height="65.000000pt" viewBox="0 0 86.000000 65.000000"
 preserveAspectRatio="xMidYMid meet">

<g transform="translate(0.000000,65.000000) scale(0.100000,-0.100000)"
fill="#000000" stroke="none">
<path d="M0 430 l0 -220 430 0 430 0 0 220 0 220 -430 0 -430 0 0 -220z m206
108 c58 -97 53 -96 90 -31 l33 58 0 -85 c1 -80 -2 -89 -38 -154 l-39 -69 -87
149 c-48 82 -94 159 -101 172 -14 22 -14 22 45 22 l60 0 37 -62z m254 -108 l0
-170 -55 0 -55 0 0 170 0 170 55 0 55 0 0 -170z m-342 23 c37 -62 42 -79 42
-132 l0 -61 -55 0 -55 0 0 152 c0 171 -5 168 68 41z m512 -58 l0 -135 -55 0
-55 0 0 135 0 135 55 0 55 0 0 -135z m147 103 l33 -32 0 -103 0 -103 -55 0
-55 0 0 100 0 100 -25 0 c-30 0 -33 24 -8 52 26 29 72 23 110 -14z"/>
<path d="M0 170 c0 -5 6 -10 13 -10 8 0 12 -17 12 -50 0 -33 -4 -50 -12 -50
-7 0 -13 -4 -13 -10 0 -5 16 -10 35 -10 19 0 35 5 35 10 0 6 -7 10 -15 10 -11
0 -15 11 -14 43 l0 42 27 -52 c14 -29 29 -53 32 -53 3 0 18 24 32 53 l27 52 0
-42 c1 -32 -3 -43 -14 -43 -8 0 -15 -4 -15 -10 0 -5 16 -10 35 -10 19 0 35 5
35 10 0 6 -4 10 -10 10 -5 0 -10 23 -10 50 0 28 5 50 10 50 6 0 10 5 10 10 0
6 -10 10 -23 10 -18 0 -29 -11 -47 -50 -13 -28 -26 -50 -30 -50 -4 0 -17 23
-30 50 -18 39 -29 50 -47 50 -13 0 -23 -4 -23 -10z"/>
<path d="M370 165 c-19 -22 -5 -45 40 -62 22 -9 40 -22 40 -30 0 -18 -40 -17
-68 3 -21 14 -22 14 -22 -10 0 -14 5 -26 10 -26 6 0 10 5 10 12 0 9 3 9 12 0
15 -15 51 -15 66 0 23 23 12 44 -30 64 -52 24 -61 44 -19 44 18 0 34 -7 40
-17 9 -17 10 -17 17 0 9 24 1 30 -45 34 -25 3 -42 -1 -51 -12z"/>
<path d="M490 170 c0 -5 5 -10 10 -10 6 0 10 -22 10 -50 0 -27 -4 -50 -10 -50
-5 0 -10 -4 -10 -10 0 -5 11 -10 24 -10 20 0 23 4 22 37 -1 33 2 38 23 41 23
4 24 2 18 -37 -5 -38 -3 -41 19 -41 13 0 24 5 24 10 0 6 -4 10 -10 10 -5 0
-10 15 -10 34 0 26 -5 36 -20 41 -12 4 -27 1 -35 -5 -13 -10 -15 -7 -15 19 0
24 -4 31 -20 31 -11 0 -20 -4 -20 -10z"/>
<path d="M215 130 c-3 -5 -1 -10 4 -10 6 0 11 -13 11 -30 0 -16 -4 -30 -10
-30 -5 0 -10 -4 -10 -10 0 -5 14 -10 30 -10 17 0 30 5 30 10 0 6 -4 10 -10 10
-15 0 -12 36 5 50 8 7 22 10 30 6 17 -6 21 -56 5 -56 -5 0 -10 -4 -10 -10 0
-5 14 -10 30 -10 17 0 30 5 30 10 0 6 -4 10 -10 10 -5 0 -10 13 -10 29 0 39
-23 57 -55 43 -15 -7 -25 -8 -25 -2 0 13 -27 13 -35 0z"/>
<path d="M647 122 c-21 -23 -22 -46 -1 -66 30 -31 84 -9 84 34 0 24 -26 50
-49 50 -10 0 -25 -8 -34 -18z m58 -32 c0 -18 -6 -26 -23 -28 -13 -2 -25 3 -28
12 -10 26 4 48 28 44 17 -2 23 -10 23 -28z"/>
<path d="M740 130 c0 -5 5 -10 10 -10 6 0 10 -25 10 -56 0 -34 -4 -53 -10 -49
-5 3 -10 1 -10 -4 0 -6 14 -11 30 -11 17 0 30 5 30 11 0 5 -4 7 -10 4 -5 -3
-10 2 -10 13 0 15 5 18 23 15 46 -9 74 48 41 81 -19 19 -36 20 -52 4 -9 -9
-12 -9 -12 0 0 7 -9 12 -20 12 -11 0 -20 -4 -20 -10z m95 -40 c0 -20 -6 -26
-27 -28 -24 -3 -28 0 -28 21 0 30 9 39 35 35 14 -2 20 -10 20 -28z"/>
</g>
</svg>
